<svg width="512" height="512" viewBox="-210 -103 900 900" fill="none" xmlns="http://www.w3.org/2000/svg">
<path d="M0 0H480V75.9452H302.373L306.441 94.9315L307.797 108.493L309.153 117.986L311.864 130.192L314.576 155.959H480V231.904H360.678V241.397L357.966 252.247L356.61 268.521L353.898 279.37L352.542 288.863L349.831 311.918L347.119 324.123L345.763 333.616L344.407 349.89L347.119 368.877L349.831 381.082L352.542 404.137L355.254 417.699L356.61 431.26L357.966 440.753L360.678 452.959V461.096H480V537.041H314.576L311.864 562.808L307.797 584.507L305.085 607.562L302.373 617.055H480V693H0V617.055H177.627L174.915 604.849L172.203 584.507L169.492 570.945L168.136 557.384L165.424 543.822V537.041H0V461.096H119.322V451.603L122.034 440.753L123.39 424.479L124.746 423.123L126.102 406.849L127.458 397.356L128.814 396L130.169 379.726L132.881 368.877L134.237 352.603L135.593 351.247V341.753L132.881 329.548L131.525 315.986L128.814 302.425L127.458 288.863L124.746 275.301L123.39 261.74L120.678 248.178L119.322 234.616V231.904H0V155.959H165.424V146.466L166.78 145.11L168.136 128.836L169.492 122.055L172.203 104.425L174.915 90.863L176.271 77.3014L0 75.9452V0ZM226.441 231.904L211.525 343.11L212.881 359.384L226.441 461.096H253.559V452.959L254.915 451.603L256.271 432.616L257.627 431.26L258.983 412.274L260.339 410.918L261.695 391.931L263.051 390.575L268.475 349.89V343.11L267.119 340.397L265.763 322.767L264.407 320.055L263.051 302.425L258.983 271.233L257.627 268.521L256.271 250.89L254.915 248.178L253.559 231.904H226.441Z" fill="#D7D9DD"/>
<path d="M480 0H0V75.9452H177.627L173.559 94.9315L172.203 108.493L170.847 117.986L168.136 130.192L165.424 155.959H0V231.904H119.322V241.397L122.034 252.247L123.39 268.521L126.102 279.37L127.458 288.863L130.169 311.918L132.881 324.123L134.237 333.616L135.593 349.89L132.881 368.877L130.169 381.082L127.458 404.137L124.746 417.699L123.39 431.26L122.034 440.753L119.322 452.959V461.096H0V537.041H165.424L168.136 562.808L172.203 584.507L174.915 607.562L177.627 617.055H0V693H480V617.055H302.373L305.085 604.849L307.797 584.507L310.508 570.945L311.864 557.384L314.576 543.822V537.041H480V461.096H360.678V451.603L357.966 440.753L356.61 424.479L355.254 423.123L353.898 406.849L352.542 397.356L351.186 396L349.831 379.726L347.119 368.877L345.763 352.603L344.407 351.247V341.753L347.119 329.548L348.475 315.986L351.186 302.425L352.542 288.863L355.254 275.301L356.61 261.74L359.322 248.178L360.678 234.616V231.904H480V155.959H314.576V146.466L313.22 145.11L311.864 128.836L310.508 122.055L307.797 104.425L305.085 90.863L303.729 77.3014L480 75.9452V0ZM253.559 231.904L268.475 343.11L267.119 359.384L253.559 461.096H226.441V452.959L225.085 451.603L223.729 432.616L222.373 431.26L221.017 412.274L219.661 410.918L218.305 391.931L216.949 390.575L211.525 349.89V343.11L212.881 340.397L214.237 322.767L215.593 320.055L216.949 302.425L221.017 271.233L222.373 268.521L223.729 250.89L225.085 248.178L226.441 231.904H253.559Z" fill="#D7D9DD"/>
<path d="M0 693H480V617.055H302.373L306.441 598.068L307.797 584.507L309.153 575.014L311.864 562.808L314.576 537.041H480V461.096H360.678V451.603L357.966 440.753L356.61 424.479L353.898 413.63L352.542 404.137L349.831 381.082L347.119 368.877L345.763 359.384L344.407 343.11L347.119 324.123L349.831 311.918L352.542 288.863L355.254 275.301L356.61 261.74L357.966 252.247L360.678 240.041V231.904H480V155.959H314.576L311.864 130.192L307.797 108.493L305.085 85.4384L302.373 75.9452H480V0H0V75.9452H177.627L174.915 88.1507L172.203 108.493L169.492 122.055L168.136 135.616L165.424 149.178V155.959H0V231.904H119.322V241.397L122.034 252.247L123.39 268.521L124.746 269.877L126.102 286.151L127.458 295.644L128.814 297L130.169 313.274L132.881 324.123L134.237 340.397L135.593 341.753V351.247L132.881 363.452L131.525 377.014L128.814 390.575L127.458 404.137L124.746 417.699L123.39 431.26L120.678 444.822L119.322 458.384V461.096H0V537.041H165.424V546.534L166.78 547.89L168.136 564.164L169.492 570.945L172.203 588.575L174.915 602.137L176.271 615.699L0 617.055V693ZM226.441 461.096L211.525 349.89L212.881 333.616L226.441 231.904H253.559V240.041L254.915 241.397L256.271 260.384L257.627 261.74L258.983 280.726L260.339 282.082L261.695 301.068L263.051 302.425L268.475 343.11V349.89L267.119 352.603L265.763 370.233L264.407 372.945L263.051 390.575L258.983 421.767L257.627 424.479L256.271 442.11L225.085 444.822L226.441 461.096H253.559Z" fill="#D7D9DD"/>
</svg>